<svg width="24" height="24" viewBox="0 0 24 24" fill="none" xmlns="http://www.w3.org/2000/svg">
<path d="M11.999 21.7501C11.893 21.7501 11.787 21.728 11.688 21.683C11.361 21.534 3.665 17.9651 2.431 11.6091C1.954 9.15006 2.433 6.75105 3.71201 5.19305C4.747 3.93105 6.23496 3.26003 8.01596 3.25103C10.074 3.25103 11.313 4.40806 11.998 5.39306C12.686 4.40406 13.9349 3.24203 15.9799 3.25103C17.7619 3.26003 19.251 3.93105 20.287 5.19305C21.564 6.75005 22.0419 9.14904 21.5639 11.61C20.3319 17.966 12.635 21.5361 12.308 21.6841C12.211 21.7281 12.105 21.7501 11.999 21.7501Z" fill="#17181D"/>
</svg>
