<svg xmlns="http://www.w3.org/2000/svg" viewBox="0 0 24 24" width="24" height="24" fill="none">
  <circle cx="12" cy="12" r="3" stroke="#374151" stroke-width="2"/>
  <path d="M19.4 15a1.65 1.65 0 00.33 1.82l.06.06a2 2 0 01-2.83 2.83l-.06-.06a1.65 1.65 0 00-1.82-.33 1.65 1.65 0 00-1 1.51V21a2 2 0 01-4 0v-.09a1.65 1.65 0 00-1-1.51 1.65 1.65 0 00-1.82.33l-.06.06A2 2 0 014.28 17.8l.06-.06a1.65 1.65 0 00.33-1.82 1.65 1.65 0 00-1.51-1H3a2 2 0 010-4h.09a1.65 1.65 0 001.51-1 1.65 1.65 0 00-.33-1.82l-.06-.06A2 2 0 016.7 4.28l.06.06a1.65 1.65 0 001.82.33H9a1.65 1.65 0 001-1.51V3a2 2 0 014 0v.09c.12.6.64 1.06 1.24 1.06h.53a1.65 1.65 0 001.51 1 1.65 1.65 0 001.82-.33l.06-.06A2 2 0 0119.72 6.2l-.06.06a1.65 1.65 0 00-.33 1.82V9c.6.12 1.06.64 1.06 1.24V11a1.65 1.65 0 001.51 1H21a2 2 0 010 4h-.09c-.6 0-1.06.64-1.06 1.24z" stroke="#374151" stroke-width="0" fill="#d1d5db"/>
</svg>
