<svg width="49" height="48" viewBox="0 0 49 48" fill="none" xmlns="http://www.w3.org/2000/svg">
<path d="M30.0624 24.997C30.2047 24.8388 30.273 24.6274 30.2503 24.4159C29.8832 20.9863 27.576 18.2089 24.4857 17.1176C25.6193 16.241 26.3513 14.8689 26.3513 13.3284C26.3513 10.6879 24.203 8.53957 21.5625 8.53957C18.9219 8.53957 16.7736 10.6879 16.7736 13.3284C16.7736 14.869 17.5056 16.241 18.6392 17.1176C15.5489 18.209 13.2416 20.9863 12.8746 24.4159C12.852 24.6276 12.9202 24.8389 13.0625 24.9971C13.2048 25.1554 13.4076 25.2457 13.6203 25.2457L29.5046 25.2456C29.7173 25.2456 29.9201 25.1552 30.0624 24.997ZM18.2736 13.3283C18.2736 11.5148 19.749 10.0395 21.5625 10.0395C23.376 10.0395 24.8513 11.5148 24.8513 13.3283C24.8513 15.1412 23.3769 16.6161 21.5643 16.6172C21.5637 16.6172 21.5631 16.6172 21.5625 16.6172C21.5618 16.6172 21.5612 16.6172 21.5606 16.6172C19.7479 16.6161 18.2736 15.1412 18.2736 13.3283ZM14.5033 23.7457C15.2378 20.485 18.137 18.118 21.5605 18.1171H21.5625C21.5625 18.1171 21.5638 18.1171 21.5644 18.1171C24.9878 18.118 27.8869 20.4849 28.6215 23.7456L14.5033 23.7457Z" fill="#275BA6"/>
</svg>
