<svg xmlns="http://www.w3.org/2000/svg" viewBox="0 0 24 24" width="24" height="24" fill="none">
  <path d="M21 12.5A8.38 8.38 0 0 1 12.5 21 8.5 8.5 0 0 1 4 12.5 8.5 8.5 0 0 1 12.5 4 8.38 8.38 0 0 1 21 12.5z" stroke="#10b981" stroke-width="2" fill="none"/>
  <path d="M17 14.5c-.3.9-1 1.6-1.8 1.8-.9.2-1.8.3-3.8-.9-2.2-1.4-3.6-4-3.7-4.1-.2-.4 0-.6.3-.9.3-.3.6-.9.9-1.4.2-.5 0-.9-.1-1.1-.1-.2-.9-2.1-1.3-2.9-.3-.8-.7-.9-.9-.9s-1 .1-1.5.4c-.5.3-1.6 1.4-1.6 3.4 0 2 .9 4.6 2.1 6.4 1.2 1.8 4 3.8 8 4.1 2 .1 3.4-.6 3.9-1.1.5-.6.5-1.3.4-1.4-.1-.1-.6-.3-1-.6z" stroke="#10b981" stroke-width="1" fill="none"/>
</svg>
